<svg  viewBox="0 0 300 268" fill="none" xmlns="http://www.w3.org/2000/svg">
<path d="M125 230V85H149.85C150.864 85.0006 151.855 84.701 152.699 84.139C153.543 83.577 154.202 82.7777 154.592 81.8419C154.983 80.9061 155.087 79.8757 154.893 78.8805C154.698 77.8854 154.214 76.9701 153.5 76.25L83.65 6.49996C82.6796 5.53634 81.3675 4.99554 80 4.99554C78.6324 4.99554 77.3204 5.53634 76.35 6.49996L6.49999 76.25C5.78618 76.9701 5.30153 77.8854 5.10715 78.8805C4.91277 79.8757 5.01735 80.9061 5.40771 81.8419C5.79807 82.7777 6.45673 83.577 7.30067 84.139C8.14461 84.701 9.13604 85.0006 10.15 85H35V230C35 233.978 36.5803 237.794 39.3934 240.607C42.2064 243.42 46.0217 245 50 245H110C113.978 245 117.794 243.42 120.607 240.607C123.42 237.794 125 233.978 125 230Z" fill="url(#paint0_linear_75_63)"/>
<path d="M200 295C252.467 295 295 252.467 295 200C295 147.533 252.467 105 200 105C147.533 105 105 147.533 105 200C105 252.467 147.533 295 200 295Z" fill="#E1EFFF"/>
<path d="M168.85 225C169.593 225.953 169.962 227.145 169.888 228.351C169.814 229.557 169.303 230.694 168.45 231.55L150.65 249.35C150.15 249.831 149.558 250.204 148.908 250.448C148.259 250.692 147.567 250.8 146.875 250.768C146.182 250.735 145.503 250.561 144.88 250.257C144.257 249.953 143.702 249.526 143.25 249C130.858 234.677 124.354 216.189 125.05 197.262C125.746 178.335 133.589 160.375 147 147L165 155L171.75 171.75C164.76 178.692 160.595 187.981 160.059 197.817C159.523 207.654 162.656 217.34 168.85 225Z" fill="#8D9CCC"/>
<path d="M210 250H190C184.477 250 180 254.477 180 260C180 265.523 184.477 270 190 270H210C215.523 270 220 265.523 220 260C220 254.477 215.523 250 210 250Z" fill="#B0CCDD"/>
<path d="M253 147L245 165L228.25 171.75C224.548 168.026 220.146 165.071 215.298 163.055C210.45 161.038 205.251 160 200 160C194.749 160 189.55 161.038 184.702 163.055C179.854 165.071 175.452 168.026 171.75 171.75L147 147C153.952 140.026 162.213 134.493 171.308 130.718C180.402 126.943 190.153 125 200 125C209.847 125 219.598 126.943 228.692 130.718C237.787 134.493 246.048 140.026 253 147Z" fill="#6778B7"/>
<path d="M275 200C275.017 217.998 268.536 235.398 256.75 249C256.298 249.526 255.743 249.953 255.12 250.257C254.497 250.561 253.818 250.735 253.125 250.768C252.433 250.8 251.741 250.692 251.092 250.448C250.442 250.204 249.85 249.831 249.35 249.35L231.55 231.55C230.697 230.694 230.186 229.557 230.112 228.351C230.038 227.145 230.407 225.953 231.15 225C237.344 217.34 240.477 207.654 239.941 197.817C239.405 187.981 235.24 178.692 228.25 171.75L253 147C259.981 153.947 265.519 162.206 269.295 171.302C273.07 180.398 275.009 190.151 275 200Z" fill="#2C4B9E"/>
<path d="M255 205H205C203.674 205 202.402 204.473 201.464 203.536C200.527 202.598 200 201.326 200 200C200 198.674 200.527 197.402 201.464 196.464C202.402 195.527 203.674 195 205 195H255C256.326 195 257.598 195.527 258.536 196.464C259.473 197.402 260 198.674 260 200C260 201.326 259.473 202.598 258.536 203.536C257.598 204.473 256.326 205 255 205Z" fill="#296172"/>
<path d="M200 210C205.523 210 210 205.523 210 200C210 194.477 205.523 190 200 190C194.477 190 190 194.477 190 200C190 205.523 194.477 210 200 210Z" fill="#9EBBCE"/>
<defs>
<linearGradient id="paint0_linear_75_63" x1="43.912" y1="2.53649" x2="194.878" y2="61.4648" gradientUnits="userSpaceOnUse">
<stop stop-color="#1461B9"/>
<stop offset="1" stop-color="#172476"/>
</linearGradient>
</defs>
</svg>
