<svg  viewBox="0 0 300 273" fill="none" xmlns="http://www.w3.org/2000/svg">
<path d="M210 295H285C287.652 295 290.196 293.946 292.071 292.071C293.946 290.196 295 287.652 295 285V45C295 42.3478 293.946 39.8043 292.071 37.9289C290.196 36.0536 287.652 35 285 35H210V295Z" fill="url(#paint0_linear_75_26)"/>
<path d="M90 295H15C12.3478 295 9.8043 293.946 7.92893 292.071C6.05357 290.196 5 287.652 5 285V45C5 42.3478 6.05357 39.8043 7.92893 37.9289C9.8043 36.0536 12.3478 35 15 35H90V295Z" fill="url(#paint1_linear_75_26)"/>
<path d="M80 55H35C32.3478 55 29.8043 56.0536 27.9289 57.9289C26.0536 59.8043 25 62.3478 25 65V85C25 87.6522 26.0536 90.1957 27.9289 92.0711C29.8043 93.9464 32.3478 95 35 95H80V55Z" fill="#070F40"/>
<path d="M80 115H35C32.3478 115 29.8043 116.054 27.9289 117.929C26.0536 119.804 25 122.348 25 125V145C25 147.652 26.0536 150.196 27.9289 152.071C29.8043 153.946 32.3478 155 35 155H80V115Z" fill="#070F40"/>
<path d="M80 175H35C32.3478 175 29.8043 176.054 27.9289 177.929C26.0536 179.804 25 182.348 25 185V205C25 207.652 26.0536 210.196 27.9289 212.071C29.8043 213.946 32.3478 215 35 215H80V175Z" fill="#070F40"/>
<path d="M80 235H35C32.3478 235 29.8043 236.054 27.9289 237.929C26.0536 239.804 25 242.348 25 245V265C25 267.652 26.0536 270.196 27.9289 272.071C29.8043 273.946 32.3478 275 35 275H80V235Z" fill="#070F40"/>
<path d="M220 55H265C267.652 55 270.196 56.0536 272.071 57.9289C273.946 59.8043 275 62.3478 275 65V85C275 87.6522 273.946 90.1957 272.071 92.0711C270.196 93.9464 267.652 95 265 95H220V55Z" fill="#070F40"/>
<path d="M220 115H265C267.652 115 270.196 116.054 272.071 117.929C273.946 119.804 275 122.348 275 125V145C275 147.652 273.946 150.196 272.071 152.071C270.196 153.946 267.652 155 265 155H220V115Z" fill="#070F40"/>
<path d="M220 175H265C267.652 175 270.196 176.054 272.071 177.929C273.946 179.804 275 182.348 275 185V205C275 207.652 273.946 210.196 272.071 212.071C270.196 213.946 267.652 215 265 215H220V175Z" fill="#070F40"/>
<path d="M220 235H265C267.652 235 270.196 236.054 272.071 237.929C273.946 239.804 275 242.348 275 245V265C275 267.652 273.946 270.196 272.071 272.071C270.196 273.946 267.652 275 265 275H220V235Z" fill="#070F40"/>
<path d="M210 5H90C84.4772 5 80 9.47715 80 15V285C80 290.523 84.4772 295 90 295H210C215.523 295 220 290.523 220 285V15C220 9.47715 215.523 5 210 5Z" fill="url(#paint2_linear_75_26)"/>
<path d="M110 80H190C195.523 80 200 75.5228 200 70V50C200 44.4771 195.523 40 190 40H110C104.477 40 100 44.4771 100 50V70C100 75.5228 104.477 80 110 80Z" fill="#070F40"/>
<path d="M110 140H190C195.523 140 200 135.523 200 130V110C200 104.477 195.523 100 190 100H110C104.477 100 100 104.477 100 110V130C100 135.523 104.477 140 110 140Z" fill="#070F40"/>
<path d="M110 200H190C195.523 200 200 195.523 200 190V170C200 164.477 195.523 160 190 160H110C104.477 160 100 164.477 100 170V190C100 195.523 104.477 200 110 200Z" fill="#070F40"/>
<path d="M110 260H190C195.523 260 200 255.523 200 250V230C200 224.477 195.523 220 190 220H110C104.477 220 100 224.477 100 230V250C100 255.523 104.477 260 110 260Z" fill="#070F40"/>
<path d="M50 80H45C43.6739 80 42.4021 79.4732 41.4645 78.5355C40.5268 77.5979 40 76.3261 40 75C40 73.6739 40.5268 72.4021 41.4645 71.4645C42.4021 70.5268 43.6739 70 45 70H50C51.3261 70 52.5979 70.5268 53.5355 71.4645C54.4732 72.4021 55 73.6739 55 75C55 76.3261 54.4732 77.5979 53.5355 78.5355C52.5979 79.4732 51.3261 80 50 80Z" fill="#455C9A"/>
<path d="M80 80H70C68.6739 80 67.4021 79.4732 66.4645 78.5355C65.5268 77.5979 65 76.3261 65 75C65 73.6739 65.5268 72.4021 66.4645 71.4645C67.4021 70.5268 68.6739 70 70 70H80V80Z" fill="#455C9A"/>
<path d="M50 140H45C43.6739 140 42.4021 139.473 41.4645 138.536C40.5268 137.598 40 136.326 40 135C40 133.674 40.5268 132.402 41.4645 131.464C42.4021 130.527 43.6739 130 45 130H50C51.3261 130 52.5979 130.527 53.5355 131.464C54.4732 132.402 55 133.674 55 135C55 136.326 54.4732 137.598 53.5355 138.536C52.5979 139.473 51.3261 140 50 140Z" fill="#455C9A"/>
<path d="M80 140H70C68.6739 140 67.4021 139.473 66.4645 138.536C65.5268 137.598 65 136.326 65 135C65 133.674 65.5268 132.402 66.4645 131.464C67.4021 130.527 68.6739 130 70 130H80V140Z" fill="#455C9A"/>
<path d="M50 200H45C43.6739 200 42.4021 199.473 41.4645 198.536C40.5268 197.598 40 196.326 40 195C40 193.674 40.5268 192.402 41.4645 191.464C42.4021 190.527 43.6739 190 45 190H50C51.3261 190 52.5979 190.527 53.5355 191.464C54.4732 192.402 55 193.674 55 195C55 196.326 54.4732 197.598 53.5355 198.536C52.5979 199.473 51.3261 200 50 200Z" fill="#455C9A"/>
<path d="M80 200H70C68.6739 200 67.4021 199.473 66.4645 198.536C65.5268 197.598 65 196.326 65 195C65 193.674 65.5268 192.402 66.4645 191.464C67.4021 190.527 68.6739 190 70 190H80V200Z" fill="#455C9A"/>
<path d="M50 260H45C43.6739 260 42.4021 259.473 41.4645 258.536C40.5268 257.598 40 256.326 40 255C40 253.674 40.5268 252.402 41.4645 251.464C42.4021 250.527 43.6739 250 45 250H50C51.3261 250 52.5979 250.527 53.5355 251.464C54.4732 252.402 55 253.674 55 255C55 256.326 54.4732 257.598 53.5355 258.536C52.5979 259.473 51.3261 260 50 260Z" fill="#455C9A"/>
<path d="M80 260H70C68.6739 260 67.4021 259.473 66.4645 258.536C65.5268 257.598 65 256.326 65 255C65 253.674 65.5268 252.402 66.4645 251.464C67.4021 250.527 68.6739 250 70 250H80V260Z" fill="#455C9A"/>
<path d="M220 70H255C256.326 70 257.598 70.5268 258.536 71.4645C259.473 72.4021 260 73.6739 260 75C260 76.3261 259.473 77.5979 258.536 78.5355C257.598 79.4732 256.326 80 255 80H220V70Z" fill="#455C9A"/>
<path d="M220 130H255C256.326 130 257.598 130.527 258.536 131.464C259.473 132.402 260 133.674 260 135C260 136.326 259.473 137.598 258.536 138.536C257.598 139.473 256.326 140 255 140H220V130Z" fill="#455C9A"/>
<path d="M220 190H255C256.326 190 257.598 190.527 258.536 191.464C259.473 192.402 260 193.674 260 195C260 196.326 259.473 197.598 258.536 198.536C257.598 199.473 256.326 200 255 200H220V190Z" fill="#455C9A"/>
<path d="M220 250H255C256.326 250 257.598 250.527 258.536 251.464C259.473 252.402 260 253.674 260 255C260 256.326 259.473 257.598 258.536 258.536C257.598 259.473 256.326 260 255 260H220V250Z" fill="#455C9A"/>
<path d="M180 65H150C148.674 65 147.402 64.4732 146.464 63.5355C145.527 62.5979 145 61.3261 145 60C145 58.6739 145.527 57.4021 146.464 56.4645C147.402 55.5268 148.674 55 150 55H180C181.326 55 182.598 55.5268 183.536 56.4645C184.473 57.4021 185 58.6739 185 60C185 61.3261 184.473 62.5979 183.536 63.5355C182.598 64.4732 181.326 65 180 65Z" fill="#455C9A"/>
<path d="M125 65H120C118.674 65 117.402 64.4732 116.464 63.5355C115.527 62.5979 115 61.3261 115 60C115 58.6739 115.527 57.4021 116.464 56.4645C117.402 55.5268 118.674 55 120 55H125C126.326 55 127.598 55.5268 128.536 56.4645C129.473 57.4021 130 58.6739 130 60C130 61.3261 129.473 62.5979 128.536 63.5355C127.598 64.4732 126.326 65 125 65Z" fill="#455C9A"/>
<path d="M180 125H150C148.674 125 147.402 124.473 146.464 123.536C145.527 122.598 145 121.326 145 120C145 118.674 145.527 117.402 146.464 116.464C147.402 115.527 148.674 115 150 115H180C181.326 115 182.598 115.527 183.536 116.464C184.473 117.402 185 118.674 185 120C185 121.326 184.473 122.598 183.536 123.536C182.598 124.473 181.326 125 180 125Z" fill="#455C9A"/>
<path d="M125 125H120C118.674 125 117.402 124.473 116.464 123.536C115.527 122.598 115 121.326 115 120C115 118.674 115.527 117.402 116.464 116.464C117.402 115.527 118.674 115 120 115H125C126.326 115 127.598 115.527 128.536 116.464C129.473 117.402 130 118.674 130 120C130 121.326 129.473 122.598 128.536 123.536C127.598 124.473 126.326 125 125 125Z" fill="#455C9A"/>
<path d="M180 185H150C148.674 185 147.402 184.473 146.464 183.536C145.527 182.598 145 181.326 145 180C145 178.674 145.527 177.402 146.464 176.464C147.402 175.527 148.674 175 150 175H180C181.326 175 182.598 175.527 183.536 176.464C184.473 177.402 185 178.674 185 180C185 181.326 184.473 182.598 183.536 183.536C182.598 184.473 181.326 185 180 185Z" fill="#455C9A"/>
<path d="M125 185H120C118.674 185 117.402 184.473 116.464 183.536C115.527 182.598 115 181.326 115 180C115 178.674 115.527 177.402 116.464 176.464C117.402 175.527 118.674 175 120 175H125C126.326 175 127.598 175.527 128.536 176.464C129.473 177.402 130 178.674 130 180C130 181.326 129.473 182.598 128.536 183.536C127.598 184.473 126.326 185 125 185Z" fill="#455C9A"/>
<path d="M180 245H150C148.674 245 147.402 244.473 146.464 243.536C145.527 242.598 145 241.326 145 240C145 238.674 145.527 237.402 146.464 236.464C147.402 235.527 148.674 235 150 235H180C181.326 235 182.598 235.527 183.536 236.464C184.473 237.402 185 238.674 185 240C185 241.326 184.473 242.598 183.536 243.536C182.598 244.473 181.326 245 180 245Z" fill="#455C9A"/>
<path d="M125 245H120C118.674 245 117.402 244.473 116.464 243.536C115.527 242.598 115 241.326 115 240C115 238.674 115.527 237.402 116.464 236.464C117.402 235.527 118.674 235 120 235H125C126.326 235 127.598 235.527 128.536 236.464C129.473 237.402 130 238.674 130 240C130 241.326 129.473 242.598 128.536 243.536C127.598 244.473 126.326 245 125 245Z" fill="#455C9A"/>
<defs>
<linearGradient id="paint0_linear_75_26" x1="232.047" y1="32.3361" x2="326.697" y2="51.6651" gradientUnits="userSpaceOnUse">
<stop stop-color="#1461B9"/>
<stop offset="1" stop-color="#172476"/>
</linearGradient>
<linearGradient id="paint1_linear_75_26" x1="27.0469" y1="32.3361" x2="121.697" y2="51.6651" gradientUnits="userSpaceOnUse">
<stop stop-color="#1461B9"/>
<stop offset="1" stop-color="#172476"/>
</linearGradient>
<linearGradient id="paint2_linear_75_26" x1="116.313" y1="2.0287" x2="265.172" y2="46.9185" gradientUnits="userSpaceOnUse">
<stop stop-color="#172476"/>
<stop offset="1" stop-color="#151B41"/>
</linearGradient>
</defs>
</svg>
