<svg id="Icons" height="512" viewBox="0 0 60 60" width="512" xmlns="http://www.w3.org/2000/svg"><path d="m4.485 26.5a.5.5 0 0 1 -.271-.92l5.012-3.242-5.275 3.045a.5.5 0 0 1 -.522-.852l4.165-2.711-5.149 2.973a.5.5 0 0 1 -.524-.851l4.1-2.687-4.405 2.545a.5.5 0 0 1 -.521-.853l1.055-.687-.848.49a.5.5 0 0 1 -.529-.85l2.905-1.945-2.4 1.384a.5.5 0 0 1 -.555-.829l5.613-4.337-5.056 2.927a.5.5 0 0 1 -.564-.822l3.231-2.608-2.667 1.53a.5.5 0 0 1 -.573-.814l1.368-1.161-.682.394a.5.5 0 0 1 -.591-.8l2.73-2.547a.5.5 0 0 1 .248-.391l.5-.289a.5.5 0 0 1 .591.8l-.18.167 1.678-.959a.5.5 0 0 1 .573.814l-1.366 1.16 3.424-1.982a.5.5 0 0 1 .564.823l-3.234 2.61 5.95-3.435a.5.5 0 0 1 .556.828l-5.612 4.336 8.951-5.168a.5.5 0 0 1 .528.849l-2.9 1.943 4.839-2.794a.5.5 0 0 1 .521.854l-1.06.686 2.669-1.541a.5.5 0 0 1 .525.851l-4.097 2.686 6.131-3.539a.5.5 0 0 1 .523.852l-4.168 2.713 6.177-3.567a.5.5 0 0 1 .522.853l-5.015 3.243 7.1-4.1a.5.5 0 0 1 .529.848l-8.7 5.851 11.608-6.7a.5.5 0 0 1 .524.852l-5.967 3.889 8.215-4.743a.5.5 0 0 1 .526.85l-7.636 5.063 10.246-5.916a.5.5 0 0 1 .523.852l-5.7 3.709 7.1-4.1a.5.5 0 0 1 .527.849l-7.065 4.689 7.975-4.6a.5.5 0 0 1 .538.842l-8.873 6.261 9.674-5.585a.5.5 0 0 1 .533.845l-5.688 3.915 5.361-3.095a.5.5 0 0 1 .54.84l-4.718 3.368 4.178-2.412a.5.5 0 0 1 .535.844l-1.177.819.642-.371a.5.5 0 0 1 .549.834l-1.64 1.227 1.091-.63a.5.5 0 0 1 .581.808l-1.783 1.576 1.063-.613a.5.5 0 0 1 .591.8l-2.106 1.959a.5.5 0 0 1 -.228.58l-1.089.628a.5.5 0 0 1 -.591-.8l.1-.094-1.551.895a.5.5 0 0 1 -.581-.807l1.782-1.576-4.132 2.386a.5.5 0 0 1 -.549-.834l1.642-1.225-3.569 2.057a.5.5 0 0 1 -.535-.844l1.177-.819-2.882 1.665a.5.5 0 0 1 -.54-.84l4.718-3.372-7.294 4.211a.5.5 0 0 1 -.533-.845l5.689-3.912-8.249 4.763a.5.5 0 0 1 -.538-.842l8.874-6.265-12.318 7.11a.5.5 0 0 1 -.526-.85l7.057-4.685-9.591 5.538a.5.5 0 0 1 -.523-.852l5.704-3.711-7.907 4.565a.5.5 0 0 1 -.526-.85l7.635-5.063-10.246 5.916a.5.5 0 0 1 -.523-.852l5.962-3.886-8.209 4.74a.5.5 0 0 1 -.53-.848l8.7-5.854-11.613 6.7a.5.5 0 0 1 -.248.072z" fill="#35718a"/><path d="m6.176 37.47a.5.5 0 0 1 -.28-.914l2.992-2.02-4.932 2.847a.5.5 0 0 1 -.529-.848l5.29-3.563-6.411 3.7a.5.5 0 0 1 -.527-.85l3.33-2.2-3.555 2.05a.5.5 0 0 1 -.544-.837l6.4-4.657-6.13 3.538a.5.5 0 0 1 -.539-.841l2.93-2.075-2.391 1.377a.5.5 0 0 1 -.545-.837l1.656-1.207-1.111.641a.5.5 0 0 1 -.575-.813l2.107-1.8-1.532.884a.5.5 0 0 1 -.652-.73l1.2-1.625a.5.5 0 0 1 -.468-.884l2.051-1.186a.5.5 0 0 1 .652.73l-1.2 1.623 4.125-2.382a.5.5 0 0 1 .575.813l-2.106 1.8 4.543-2.618a.5.5 0 0 1 .545.837l-1.654 1.206 3.545-2.047a.5.5 0 0 1 .539.84l-2.932 2.078 5.067-2.925a.5.5 0 0 1 .544.837l-6.4 4.657 9.526-5.5a.5.5 0 0 1 .527.85l-3.33 2.2 4.742-2.739a.5.5 0 0 1 .529.848l-5.288 3.572 4.765-2.751a.5.5 0 0 1 .529.848l-2.992 2.02 2.467-1.425a.5.5 0 0 1 .55.833l-4.779 3.589 4.23-2.442a.5.5 0 0 1 .579.81l-3.631 3.153 3.058-1.765a.5.5 0 0 1 .562.823l-.4.324a.5.5 0 0 1 .438.856l-.369.346a.5.5 0 0 1 .514.622l-.281 1.085a.493.493 0 0 1 .228.206.5.5 0 0 1 -.183.682l-.5.288a.5.5 0 0 1 -.734-.555l.2-.8-2.347 1.353a.5.5 0 0 1 -.592-.8l.2-.188-1.71.986a.5.5 0 0 1 -.562-.823l.267-.213-1.8 1.036a.5.5 0 0 1 -.578-.81l3.629-3.152-6.856 3.964a.5.5 0 0 1 -.55-.832l4.775-3.591-7.661 4.423a.5.5 0 0 1 -.25.07z" fill="#4184a9"/><path d="m22.594 13.47a.5.5 0 0 1 -.271-.92l.667-.429-2.22 1.279a.5.5 0 0 1 -.524-.851l3.175-2.076-5.07 2.927a.5.5 0 0 1 -.522-.853l1.452-.937-3.1 1.79a.5.5 0 0 1 -.527-.85l4.362-2.885-6.469 3.735a.5.5 0 0 1 -.533-.845l6.807-4.672-9.554 5.517a.5.5 0 0 1 -.52-.854l.34-.218-1.857 1.072a.5.5 0 0 1 -.528-.848l5.374-3.6-7.706 4.448a.5.5 0 0 1 -.531-.846l6.261-4.254-8.232 4.757a.5.5 0 0 1 -.541-.84l7.815-5.581-8.618 4.975a.5.5 0 0 1 -.53-.847l3.358-2.271-3.072 1.774a.5.5 0 0 1 -.531-.847l1.8-1.227-1.269.734a.5.5 0 0 1 -.568-.819l4.433-3.667-3.865 2.231a.5.5 0 0 1 -.58-.808l2.154-1.9-1.574.909a.5.5 0 0 1 -.644-.74l1.1-1.411a.5.5 0 0 1 -.372-.922l2.05-1.18a.5.5 0 0 1 .645.74l-1.065 1.369 3.693-2.129a.5.5 0 0 1 .581.808l-2.154 1.892 4.686-2.7a.5.5 0 0 1 .568.818l-4.431 3.665 7.771-4.483a.5.5 0 0 1 .531.846l-1.8 1.226 3.589-2.072a.5.5 0 0 1 .531.847l-3.359 2.268 5.4-3.115a.5.5 0 0 1 .541.84l-7.814 5.578 11.122-6.418a.5.5 0 0 1 .531.846l-6.258 4.254 8.829-5.1a.5.5 0 0 1 .528.848l-5.379 3.601 7.712-4.449a.5.5 0 0 1 .52.854l-.332.213 1.847-1.067a.5.5 0 0 1 .533.845l-6.807 4.669 9.555-5.514a.5.5 0 0 1 .526.85l-4.365 2.885 6.474-3.735a.5.5 0 0 1 .522.853l-1.446.932 3.092-1.785a.5.5 0 0 1 .524.851l-3.177 2.074 4.8-2.773a.5.5 0 0 1 .52.853l-.672.432 1.189-.686a.5.5 0 0 1 .525.85l-3.189 2.112 3.4-1.965a.5.5 0 0 1 .549.835l-6.725 4.988 6.445-3.721a.5.5 0 0 1 .532.846l-.981.671.449-.259a.5.5 0 0 1 .562.823l-3.393 2.719 2.831-1.635a.5.5 0 0 1 .559.826l-.762.6.2-.117a.5.5 0 0 1 .624.1.5.5 0 0 1 .026.631l-1.226 1.645.021-.012a.5.5 0 0 1 .5.866l-2.123 1.226a.5.5 0 0 1 -.65-.732l1.229-1.648-4.157 2.4a.5.5 0 0 1 -.56-.826l.765-.6-2.472 1.426a.5.5 0 0 1 -.562-.823l3.392-2.718-6.132 3.541a.5.5 0 0 1 -.533-.845l.982-.672-2.627 1.517a.5.5 0 0 1 -.548-.835l6.734-4.986-10.092 5.821a.5.5 0 0 1 -.526-.85l3.2-2.114-5.138 2.964a.494.494 0 0 1 -.25.07z" fill="#4184a9"/><path d="m7.438 9.385a.5.5 0 0 1 -.4-.8l.7-.915-1.224.707a.5.5 0 0 1 -.682-.686l.748-1.277-.022.012a.5.5 0 0 1 -.5-.866l1.665-.96a.5.5 0 0 1 .681.685l-.748 1.276 1.769-1.021a.5.5 0 0 1 .646.738l-.7.916.292-.169a.5.5 0 0 1 .5.866l-2.475 1.427a.5.5 0 0 1 -.25.067z" fill="#86fdaa"/><path d="m15.484 9.4a.5.5 0 0 1 -.4-.8l.742-1-1.314.759a.5.5 0 0 1 -.681-.688l.741-1.251h-.006a.5.5 0 0 1 -.5-.866l1.657-.954a.5.5 0 0 1 .68.688l-.741 1.251 1.754-1.013a.5.5 0 0 1 .651.732l-.742 1 .324-.187a.5.5 0 1 1 .5.866l-2.415 1.392a.5.5 0 0 1 -.25.071z" fill="#86fdaa"/><path d="m6.91 21.136a.5.5 0 0 1 -.391-.811l.8-1.007-.981.567a.5.5 0 0 1 -.645-.74l.52-.667a.5.5 0 0 1 -.148-.923l1.658-.955a.5.5 0 0 1 .644.74l-.31.4 1.042-.6a.5.5 0 0 1 .641.744l-.8 1.006.77-.445a.5.5 0 0 1 .5.867l-3.05 1.757a.5.5 0 0 1 -.25.067z" fill="#6de08e"/><path d="m16.028 21.468a.5.5 0 0 1 -.419-.773l.643-.988-1.575.909a.5.5 0 0 1 -.7-.653l.823-1.677-.236.135a.5.5 0 0 1 -.5-.866l1.658-.956a.5.5 0 0 1 .7.653l-.822 1.677 1.958-1.129a.5.5 0 0 1 .669.706l-.665 1.023a.5.5 0 0 1 .372.918l-1.656.956a.5.5 0 0 1 -.25.065z" fill="#6de08e"/><path d="m7.194 33.292a.5.5 0 0 1 -.418-.774l.974-1.483-1.419.819a.5.5 0 0 1 -.642-.743l.5-.638a.5.5 0 0 1 -.129-.918l1.663-.955a.5.5 0 0 1 .641.743l-.264.337.978-.565a.5.5 0 0 1 .668.708l-.974 1.483.935-.54a.5.5 0 1 1 .5.866l-2.76 1.593a.489.489 0 0 1 -.253.067z" fill="#86fdaa"/><path d="m16.028 33.468a.5.5 0 0 1 -.444-.73l.809-1.563-1.917 1.106a.5.5 0 0 1 -.675-.7l.7-1.133a.5.5 0 0 1 -.439-.9l1.658-.956a.5.5 0 0 1 .674.7l-.7 1.124 1.671-.964a.5.5 0 0 1 .694.662l-.808 1.564.177-.1a.5.5 0 0 1 .5.865l-1.656.956a.5.5 0 0 1 -.244.069z" fill="#86fdaa"/><path d="m21.792 48.5a.5.5 0 0 1 -.271-.921l4.316-2.779-5.568 3.214a.5.5 0 0 1 -.535-.844l9.478-6.547-10.728 6.195a.5.5 0 0 1 -.53-.846l6.593-4.455-7.038 4.062a.5.5 0 0 1 -.541-.839l7.2-5.145-6.888 3.973a.5.5 0 0 1 -.551-.831l5.625-4.257-5.074 2.93a.5.5 0 0 1 -.573-.814l3.948-3.337-3.375 1.948a.5.5 0 0 1 -.556-.827l.461-.359a.494.494 0 0 1 -.511-.18.5.5 0 0 1 .04-.657l2.816-2.854a.5.5 0 0 1 .25-.444l.5-.289a.5.5 0 0 1 .606.784l-.858.869 2.872-1.65a.5.5 0 0 1 .556.827l-.335.261 1.888-1.09a.5.5 0 0 1 .573.814l-3.949 3.338 7.2-4.155a.5.5 0 0 1 .552.831l-5.627 4.258 8.819-5.092a.5.5 0 0 1 .541.839l-7.2 5.145 10.372-5.987a.5.5 0 0 1 .53.847l-6.591 4.455 9.188-5.3a.5.5 0 0 1 .534.844l-9.478 6.535 12.8-7.392a.5.5 0 0 1 .521.854l-4.3 2.768 6.278-3.625a.5.5 0 0 1 .519.855l-2.973 1.9 4.769-2.753a.5.5 0 0 1 .533.845l-9.833 6.753 13.168-7.6a.5.5 0 0 1 .52.855l-3.015 1.924 4.816-2.781a.5.5 0 0 1 .52.854l-3.761 2.412 4.7-2.713a.5.5 0 0 1 .533.846l-8.858 6.056 10.116-5.84a.5.5 0 0 1 .533.846l-7.227 4.94 7.7-4.444a.5.5 0 0 1 .545.837l-7.526 5.487 7.173-4.14a.5.5 0 0 1 .528.848l-.766.513.238-.137a.5.5 0 0 1 .559.826l-4.194 3.3 3.635-2.1a.5.5 0 0 1 .591.8l-2.765 2.579 2.116-1.222a.5.5 0 0 1 .6.786l-2.775 2.775a.5.5 0 0 1 -.25.433l-.492.284a.5.5 0 0 1 -.6-.786l.728-.728-2.628 1.516a.5.5 0 0 1 -.591-.8l2.764-2.578-5.853 3.379a.5.5 0 0 1 -.559-.825l4.193-3.3-7.156 4.131a.5.5 0 0 1 -.528-.848l.769-.515-2.366 1.365a.5.5 0 0 1 -.545-.837l7.523-5.484-10.96 6.327a.5.5 0 0 1 -.532-.846l7.23-4.941-10.03 5.79a.5.5 0 0 1 -.532-.846l8.855-6.059-11.966 6.908a.5.5 0 0 1 -.52-.854l3.769-2.417-5.669 3.273a.5.5 0 0 1 -.52-.855l3.015-1.923-4.816 2.78a.5.5 0 0 1 -.534-.845l9.833-6.753-13.168 7.6a.5.5 0 0 1 -.518-.855l2.952-1.884-4.747 2.741a.494.494 0 0 1 -.25.07z" fill="#35718a"/><path d="m40.8 59.47a.5.5 0 0 1 -.272-.92l.548-.355-2.096 1.205a.5.5 0 0 1 -.534-.843l7.12-4.918-9.981 5.761a.5.5 0 0 1 -.527-.848l5.142-3.432-7.42 4.28a.5.5 0 0 1 -.526-.849l4.61-3.059-6.77 3.908a.5.5 0 0 1 -.523-.851l2.757-1.8-4.587 2.651a.5.5 0 0 1 -.534-.843l7.186-4.971-10.073 5.814a.5.5 0 0 1 -.541-.839l8.306-5.932-11.731 6.771a.5.5 0 0 1 -.521-.852l1.578-1.019-2.6 1.5a.5.5 0 0 1 -.526-.849l3.867-2.561-4.341 2.506a.5.5 0 0 1 -.53-.847l4.132-2.8-4.106 2.371a.5.5 0 0 1 -.551-.833l5.933-4.471-5.409 3.13a.5.5 0 0 1 -.539-.841l1.35-.955-.811.468a.5.5 0 0 1 -.583-.806l2.976-2.662-2.393 1.381a.5.5 0 0 1 -.66-.719l1.348-1.932-.1.06a.5.5 0 0 1 -.5-.865l2.05-1.184a.5.5 0 0 1 .66.719l-1.348 1.932 4.63-2.673a.5.5 0 0 1 .583.8l-2.976 2.663 6.005-3.461a.5.5 0 0 1 .539.84l-1.348.954 3.108-1.794a.5.5 0 0 1 .551.832l-5.934 4.468 9.188-5.3a.5.5 0 0 1 .53.846l-4.13 2.795 6.307-3.641a.5.5 0 0 1 .527.849l-3.869 2.561 5.909-3.41a.5.5 0 0 1 .521.852l-1.58 1.021 3.244-1.873a.5.5 0 0 1 .541.84l-8.3 5.931 11.724-6.771a.5.5 0 0 1 .534.843l-7.184 4.969 10.072-5.812a.5.5 0 0 1 .522.851l-2.762 1.8 4.593-2.651a.5.5 0 0 1 .527.849l-4.611 3.059 6.771-3.908a.5.5 0 0 1 .527.848l-5.14 3.433 7.416-4.28a.5.5 0 0 1 .534.843l-7.118 4.917 8.591-4.96a.5.5 0 0 1 .522.853l-.54.35.642-.372a.5.5 0 0 1 .54.84l-5.836 4.143 5.619-3.244a.5.5 0 0 1 .559.825l-5.411 4.261 4.852-2.8a.5.5 0 0 1 .548.834l-1.447 1.072.9-.518a.5.5 0 0 1 .6.785l-2.22 2.235 1.6-.925a.5.5 0 0 1 .613.777l-.743.786a.486.486 0 0 1 .24.211.5.5 0 0 1 -.182.682l-2.05 1.184a.5.5 0 0 1 -.613-.776l.269-.286-1.87 1.082a.5.5 0 0 1 -.6-.785l2.219-2.237-5.239 3.022a.5.5 0 0 1 -.548-.834l1.449-1.066-3.305 1.9a.5.5 0 0 1 -.56-.825l5.409-4.26-8.806 5.085a.5.5 0 0 1 -.539-.839l5.836-4.146-8.635 4.985a.5.5 0 0 1 -.245.07z" fill="#5498c8"/><path d="m22.919 43.142a.5.5 0 0 1 -.384-.821l.7-.836-.87.5a.5.5 0 0 1 -.652-.729l.568-.771a.5.5 0 0 1 -.214-.931l1.658-.956a.5.5 0 0 1 .652.729l-.439.6 1.238-.715a.5.5 0 0 1 .634.753l-.7.835.6-.347a.5.5 0 1 1 .5.865l-3.042 1.757a.49.49 0 0 1 -.249.067z" fill="#6de08e"/><path d="m31.005 43.194a.5.5 0 0 1 -.359-.848l.158-.162-.295.17a.5.5 0 0 1 -.68-.688l.739-1.246a.5.5 0 0 1 -.5-.865l1.658-.956a.5.5 0 0 1 .679.687l-.738 1.245 1.749-1.01a.5.5 0 0 1 .608.782l-.192.2a.5.5 0 0 1 .572.23.5.5 0 0 1 -.182.683l-2.964 1.712a.489.489 0 0 1 -.253.066z" fill="#6de08e"/><path d="m22.942 55.156a.5.5 0 0 1 -.391-.811l.8-1-1 .576a.5.5 0 0 1 -.648-.736l.537-.7a.5.5 0 0 1 -.172-.926l1.658-.956a.5.5 0 0 1 .626.1.5.5 0 0 1 .021.634l-.361.473 1.121-.647a.5.5 0 0 1 .641.744l-.794 1 .736-.425a.5.5 0 0 1 .5.866l-3.021 1.744a.489.489 0 0 1 -.253.064z" fill="#86fdaa"/><path d="m31.605 55.426a.5.5 0 0 1 -.44-.738l.952-1.765-1.764 1.018a.5.5 0 0 1 -.65-.734l.547-.723a.5.5 0 0 1 -.185-.928l1.658-.956a.5.5 0 0 1 .625.1.5.5 0 0 1 .024.633l-.386.51 1.158-.668a.5.5 0 0 1 .6.074.5.5 0 0 1 .092.6l-.952 1.765.739-.426a.5.5 0 1 1 .5.865l-2.266 1.308a.5.5 0 0 1 -.252.065z" fill="#86fdaa"/><path d="m30.323 35.47a.5.5 0 0 1 -.27-.92l1.413-.912-3.057 1.762a.5.5 0 0 1 -.522-.851l2.6-1.7-4.407 2.551a.5.5 0 0 1 -.539-.84l8.047-5.7-11.325 6.54a.5.5 0 0 1 -.541-.839l8.349-5.974-11.2 6.468a.5.5 0 0 1 -.542-.838l8.046-5.8-8.875 5.127a.5.5 0 0 1 -.527-.849l2.009-1.337-1.7.982a.5.5 0 0 1 -.537-.842l3.352-2.35-2.817 1.625a.5.5 0 0 1 -.569-.817l4.279-3.556-3.71 2.142a.5.5 0 0 1 -.561-.825l1.105-.878-.544.314a.5.5 0 0 1 -.656-.725l1.276-1.781-.038.022a.5.5 0 0 1 -.5-.866l2.05-1.183a.5.5 0 0 1 .656.725l-1.278 1.778 4.376-2.523a.5.5 0 0 1 .562.824l-1.106.879 2.949-1.7a.5.5 0 0 1 .57.817l-4.28 3.559 7.579-4.379a.5.5 0 0 1 .538.842l-3.356 2.353 5.534-3.195a.5.5 0 0 1 .528.849l-2.012 1.338 3.788-2.187a.5.5 0 0 1 .542.839l-8.045 5.8 11.492-6.639a.5.5 0 0 1 .541.84l-8.35 5.975 11.8-6.815a.5.5 0 0 1 .539.841l-8.046 5.7 11.328-6.541a.5.5 0 0 1 .522.852l-2.6 1.694 4.407-2.546a.5.5 0 0 1 .52.853l-1.413.912 3.057-1.765a.5.5 0 0 1 .538.841l-7.9 5.57 11.108-6.411a.5.5 0 0 1 .533.845l-6.835 4.693 8.967-5.177a.5.5 0 0 1 .534.844l-6.6 4.56 7.269-4.2a.5.5 0 0 1 .525.851l-1.289.846 1.1-.634a.5.5 0 0 1 .526.851l-.382.251a.5.5 0 0 1 .432.881l-4.509 3.443 3.956-2.283a.5.5 0 0 1 .566.82l-2.75 2.245 2.184-1.262a.5.5 0 0 1 .605.785l-1.7 1.72 1.048-.605a.5.5 0 0 1 .5.865l-4.28 2.461a.5.5 0 0 1 -.605-.784l1.705-1.716-4.334 2.5a.5.5 0 0 1 -.566-.82l2.75-2.244-5.31 3.064a.5.5 0 0 1 -.554-.83l4.51-3.443-7.4 4.273a.5.5 0 0 1 -.526-.849l.149-.1-1.643.947a.5.5 0 0 1 -.524-.85l1.287-.846-2.939 1.698a.5.5 0 0 1 -.534-.843l6.6-4.56-9.366 5.403a.5.5 0 0 1 -.534-.844l6.834-4.689-9.586 5.533a.5.5 0 0 1 -.538-.84l7.9-5.571-11.103 6.411a.5.5 0 0 1 -.25.07z" fill="#5498c8"/><path d="m23.376 31.369a.5.5 0 0 1 -.413-.782l.9-1.319-1.463.842a.5.5 0 0 1 -.662-.716l.624-.908a.506.506 0 0 1 -.482-.248.5.5 0 0 1 .182-.683l1.658-.956a.5.5 0 0 1 .662.716l-.567.823 1.44-.831a.5.5 0 0 1 .663.715l-.9 1.319.654-.377a.5.5 0 0 1 .5.867l-2.546 1.469a.489.489 0 0 1 -.25.069z" fill="#86fdaa"/><path d="m31.18 31.286a.5.5 0 0 1 -.372-.833l.414-.463-.691.4a.5.5 0 0 1 -.682-.684l.751-1.306-.039.022a.5.5 0 0 1 -.5-.866l1.658-.956a.5.5 0 0 1 .682.683l-.755 1.306 1.786-1.031a.5.5 0 0 1 .622.767l-.413.461.06-.035a.5.5 0 0 1 .5.866l-2.775 1.6a.489.489 0 0 1 -.246.069z" fill="#86fdaa"/><g fill="#262626"><path d="m21.4 29.03c.058 3.2 5.162 3.119 5.2-.06-.172-3.17-5.208-3.129-5.2.06zm2.519 1.517c-1.709-.153-1.739-2.966 0-3.085 1.909-.084 1.927 3.186.001 3.085z"/><path d="m29.436 29.114c.035 3.308 5.18 2.908 5.117-.23-.053-3.284-5.121-2.911-5.117.23zm1.139-.228c.018-2.033 2.906-1.607 2.851.239a1.431 1.431 0 1 1 -2.851-.239z"/><path d="m23.854 38.451c-3 .265-3.114 5.15.074 5.11 3.29-.084 3.402-5.372-.074-5.11zm-1.354 2.419c.078-1.944 3.03-1.511 3 .277-.193 1.853-2.994 1.531-3-.277z"/><path d="m34.418 40.65c-.379-3.231-4.935-2.72-4.872.436.131 3.614 5.242 3.014 4.872-.436zm-3.964.264c.031-1.861 3-1.61 3.092.171-.1 1.845-3.121 1.632-3.092-.171z"/><path d="m21.41 52.977c.062 3.153 5.139 3.29 5.18.046-.168-3.123-5.231-3.293-5.18-.046zm2.539 1.563c-1.794-.035-1.739-2.879-.038-3.062 1.96-.178 1.904 3.05.038 3.062z"/><path d="m29.4 53.058c.088 3.206 5.179 3.057 5.194-.116-.168-3.183-5.23-3.063-5.194.116zm2.5 1.483c-1.713-.187-1.7-3.033.064-3.082 1.885.002 1.857 3.227-.064 3.082z"/><path d="m57.318 35.047c2.928-1.372 2.488-5.231 2.281-8.324-.187-2.792-1.424-3.982-4.188-4.172-3.97-.274-7.991-.295-12.018-.241.406-2.961 1.113-7.882-1.68-9.419 2.175-1.467 1.865-4.573 1.747-7.377-.124-2.962-.605-4.7-3.868-5.1-8.468-1.041-17.692-.004-26.225-.004-5.367.034-13.856-2.175-12.827 6.134 0 2.546-.288 5.184 1.676 6.423-2.754 1.945-2.7 10.5.188 12.009-1.937.93-2 3.1-2 5.394 0 2.536-.574 5.938 2.5 6.916 4.564.725 9.4-.116 14.026.164-.575 2.949-1.388 8.31 1.721 9.746a4.666 4.666 0 0 0 -2.178 4.166c-1.446 10.156 4.889 8.329 12.217 8.165q13.617 0 27.235 0c3.918-.791 3.6-3.906 3.6-7.229 0-2.635-.164-4.5-2.089-5.363 3.435-2.33 3.387-9.671-.118-11.888zm-2.95-11.6c2 .224 3.054-.724 4.033 2.791.607 2.179.32 7.467-2.382 8.27-11.373-1.194-23.686.125-35.052-.09-3.948-1-4.762-6.621-2.136-9.61 2.041-2.323 5.829-1.361 8.8-1.361h14.9a.4.4 0 0 0 .546-.007c3.707-.04 7.633-.401 11.291.009zm-52.908-13.695c-.753-2.366-.187-7.3 2.506-8.162 1.838-.588 4.866 0 6.79 0h27.074c2.069 0 3.733-.41 4.71 2.658.688 2.162.268 7.692-2.562 8.162-10.261-.032-20.459.021-30.719 0-1.57 0-3.874-.379-5.637-.005-.83-.083-1.495-.561-2.162-2.653zm0 10.154c-.447-4.174 1.207-5.68 3.653-6.187 9.377-.069 18.712-.2 28.1-.128 7.555-.434 10.507.076 9.273 8.729-4.554.074-9.112.231-13.61.231-3.562.261-9.59-1.544-11.855 1.858h-7.895c-3.887 0-7.137.463-7.668-4.503zm15.714 16.644h-11c-2.288 0-4.033-.578-4.574-3.267-.417-2.073-.51-7.26 2.429-7.818 4.148.4 8.4.1 12.576.13-.194 3.013-1.143 8.346 2.23 9.537a4.09 4.09 0 0 0 -1.491 1.445.738.738 0 0 0 -.17-.027zm41.3 13.862c.593 2.115.377 7.493-2.392 8.061h-22.819c-3.844 0-8 .456-11.823 0-5.086-.57-5.8-9.388-.894-10.829 11.479.039 22.994-.175 34.5-.079 1.592.073 2.537-.328 3.427 2.847zm-2.419-3.977c-8.763-.844-18.156-.048-26.953.038-2.353 0-5.262-.41-7.7-.115-4.152-.768-5.524-6.4-2.727-9.512 1.942-2.143 5.044-.886 7.618-1.32 5.333.1 10.658.008 15.991.039 3.921-.016 7.953-.3 11.885 0 2.021.2 3.217-.868 4.346 2.719.669 2.131.285 7.592-2.461 8.151z"/><path d="m7.925 9.455c3.469.155 3.411-4.872.041-4.916-3.352-.026-3.291 4.761-.041 4.916zm-.098-3.955c1.973-.325 2.059 2.9.207 3.031-1.812.095-1.886-2.755-.207-3.031z"/><path d="m18.6 7.041c-.03-3.179-5.126-3.284-5.2-.082-.028 3.184 5.028 3.258 5.2.082zm-2.822-1.558c1.918-.323 2.173 2.892.31 3.061-1.773.1-2-2.744-.31-3.061z"/><path d="m7.963 21.59c3.273-.031 3.236-5.474-.144-5.168-2.995.278-2.979 5.188.144 5.168zm.154-3.983a1.582 1.582 0 0 1 1.411 1.5c-.176 1.828-3.11 1.6-3.059-.223a1.425 1.425 0 0 1 1.648-1.277z"/><path d="m15.866 21.584c3.2.118 3.444-5.187.159-5.174-3.084.029-3.332 5.062-.159 5.174zm1.674-2.535c-.1 1.86-3.046 1.7-3.08-.1-.036-1.866 2.984-1.69 3.08.1z"/><path d="m8.047 28.552a2.516 2.516 0 0 0 -2.647 2.385c-.05 3.177 5.022 3.312 5.194.126a2.6 2.6 0 0 0 -2.547-2.511zm.058 3.988c-1.783.133-2.024-2.7-.343-3.05 1.924-.36 2.199 2.849.343 3.05z"/><path d="m40.923 29.456c.936-.279 16.455.8 13.155-.912-.937.279-16.456-.799-13.155.912z"/><path d="m54.141 40.452c-1.113.309-16.345-.911-13.282 1.1 1.113-.313 16.341.907 13.282-1.1z"/><path d="m54.062 52.542c-.92.279-16.5-.8-13.124.916.92-.279 16.504.801 13.124-.916z"/><path d="m25.014 7.591h13c.563 0 .618-1.182-.028-1.182h-13c-.563 0-.618 1.182.028 1.182z"/><path d="m24.838 19.568h13c.569 0 .947-1.136.324-1.136h-13c-.569 0-.947 1.136-.324 1.136z"/></g></svg>