<svg  viewBox="0 0 300 268" fill="none" xmlns="http://www.w3.org/2000/svg">
<path d="M215 80V110C215 113.978 213.42 117.794 210.607 120.607C207.794 123.42 203.978 125 200 125V130H20V125C16.0218 125 12.2064 123.42 9.3934 120.607C6.58035 117.794 5 113.978 5 110V80C5 76.0218 6.58035 72.2064 9.3934 69.3934C12.2064 66.5804 16.0218 65 20 65V60H200V65C203.978 65 207.794 66.5804 210.607 69.3934C213.42 72.2064 215 76.0218 215 80Z" fill="url(#paint0_linear_75_72)"/>
<path d="M200 5H20C11.7157 5 5 11.7157 5 20V50C5 58.2843 11.7157 65 20 65H200C208.284 65 215 58.2843 215 50V20C215 11.7157 208.284 5 200 5Z" fill="url(#paint1_linear_75_72)"/>
<path d="M200 125H20C11.7157 125 5 131.716 5 140V170C5 178.284 11.7157 185 20 185H200C208.284 185 215 178.284 215 170V140C215 131.716 208.284 125 200 125Z" fill="url(#paint2_linear_75_72)"/>
<path d="M40 45C45.5228 45 50 40.5228 50 35C50 29.4772 45.5228 25 40 25C34.4772 25 30 29.4772 30 35C30 40.5228 34.4772 45 40 45Z" fill="#B8CCFF"/>
<path d="M80 45C85.5228 45 90 40.5228 90 35C90 29.4772 85.5228 25 80 25C74.4772 25 70 29.4772 70 35C70 40.5228 74.4772 45 80 45Z" fill="#B8CCFF"/>
<path d="M40 105C45.5228 105 50 100.523 50 95C50 89.4772 45.5228 85 40 85C34.4772 85 30 89.4772 30 95C30 100.523 34.4772 105 40 105Z" fill="#DEE7FF"/>
<path d="M80 105C85.5228 105 90 100.523 90 95C90 89.4772 85.5228 85 80 85C74.4772 85 70 89.4772 70 95C70 100.523 74.4772 105 80 105Z" fill="#DEE7FF"/>
<path d="M40 165C45.5228 165 50 160.523 50 155C50 149.477 45.5228 145 40 145C34.4772 145 30 149.477 30 155C30 160.523 34.4772 165 40 165Z" fill="#B8CCFF"/>
<path d="M80 165C85.5228 165 90 160.523 90 155C90 149.477 85.5228 145 80 145C74.4772 145 70 149.477 70 155C70 160.523 74.4772 165 80 165Z" fill="#B8CCFF"/>
<path d="M295 104.22V168.72C295.029 195.378 287.282 221.465 272.71 243.787C258.137 266.109 237.371 283.696 212.955 294.395C212.021 294.795 211.016 295.002 210 295.002C208.984 295.002 207.979 294.795 207.045 294.395C182.629 283.696 161.864 266.11 147.291 243.789C132.719 221.468 124.972 195.382 125 168.725V104.225C124.998 102.419 125.652 100.674 126.842 99.3152C128.032 97.9564 129.675 97.0767 131.465 96.84C146.755 95 185.315 89.65 206.25 80.765C207.436 80.2603 208.711 80.0001 210 80.0001C211.289 80.0001 212.564 80.2603 213.75 80.765C234.685 89.65 273.25 95.01 288.535 96.835C290.325 97.0717 291.968 97.9514 293.158 99.3102C294.348 100.669 295.002 102.414 295 104.22Z" fill="#E1EFFF"/>
<path d="M214.625 271.305C213.203 272.083 211.608 272.49 209.988 272.49C208.367 272.49 206.772 272.083 205.35 271.305C187.046 261.188 171.791 246.346 161.176 228.326C150.561 210.307 144.975 189.769 145 168.855V124.095C145 121.714 145.85 119.412 147.396 117.602C148.942 115.792 151.084 114.593 153.435 114.22C171.495 111.693 189.315 107.679 206.715 102.22C208.842 101.48 211.158 101.48 213.285 102.22C230.685 107.678 248.505 111.691 266.565 114.22C268.916 114.593 271.058 115.792 272.604 117.602C274.15 119.412 275 121.714 275 124.095V168.855C275.021 189.771 269.43 210.31 258.811 228.329C248.191 246.349 232.933 261.19 214.625 271.305Z" fill="url(#paint3_linear_75_72)"/>
<path d="M190 40H125C123.674 40 122.402 39.4732 121.464 38.5355C120.527 37.5979 120 36.3261 120 35C120 33.6739 120.527 32.4021 121.464 31.4645C122.402 30.5268 123.674 30 125 30H190C191.326 30 192.598 30.5268 193.536 31.4645C194.473 32.4021 195 33.6739 195 35C195 36.3261 194.473 37.5979 193.536 38.5355C192.598 39.4732 191.326 40 190 40Z" fill="#4B63B1"/>
<path d="M195 215C193.674 215 192.402 214.473 191.465 213.535L176.465 198.535C175.554 197.592 175.05 196.329 175.062 195.018C175.073 193.707 175.599 192.453 176.526 191.526C177.453 190.599 178.707 190.073 180.018 190.062C181.329 190.05 182.592 190.554 183.535 191.465L194.46 202.39L236 147C236.394 146.475 236.888 146.032 237.453 145.698C238.018 145.363 238.643 145.143 239.293 145.05C239.943 144.957 240.605 144.993 241.241 145.156C241.877 145.319 242.475 145.606 243 146C243.525 146.394 243.968 146.888 244.302 147.453C244.637 148.018 244.857 148.643 244.95 149.293C245.043 149.943 245.007 150.605 244.844 151.241C244.681 151.877 244.394 152.475 244 153L199 213C198.571 213.575 198.024 214.052 197.395 214.397C196.766 214.742 196.07 214.948 195.355 215H195Z" fill="white"/>
<defs>
<linearGradient id="paint0_linear_75_72" x1="59.4688" y1="59.2828" x2="113.46" y2="160.46" gradientUnits="userSpaceOnUse">
<stop stop-color="#172476"/>
<stop offset="1" stop-color="#151B41"/>
</linearGradient>
<linearGradient id="paint1_linear_75_72" x1="59.4688" y1="4.38525" x2="101.614" y2="96.5272" gradientUnits="userSpaceOnUse">
<stop stop-color="#1461B9"/>
<stop offset="1" stop-color="#172476"/>
</linearGradient>
<linearGradient id="paint2_linear_75_72" x1="59.4688" y1="124.385" x2="101.614" y2="216.527" gradientUnits="userSpaceOnUse">
<stop stop-color="#1461B9"/>
<stop offset="1" stop-color="#172476"/>
</linearGradient>
<linearGradient id="paint3_linear_75_72" x1="178.719" y1="99.9148" x2="301.72" y2="158.386" gradientUnits="userSpaceOnUse">
<stop stop-color="#1461B9"/>
<stop offset="1" stop-color="#172476"/>
</linearGradient>
</defs>
</svg>
