<svg viewBox="0 0 523 250" fill="none" xmlns="http://www.w3.org/2000/svg">
<g clip-path="url(#clip0_81_229)">
<g clip-path="url(#clip1_81_229)">
<path d="M206.36 240V211.664H212.918V240H206.36ZM227.536 240V217.008H218.468V211.664H243.161V217.008H234.094V240H227.536ZM271.512 240.486C269.245 240.486 267.072 240.189 264.994 239.595C262.917 238.975 261.243 238.178 259.975 237.207L262.201 232.268C263.416 233.132 264.846 233.847 266.492 234.414C268.165 234.954 269.852 235.223 271.552 235.223C272.848 235.223 273.887 235.102 274.669 234.859C275.479 234.589 276.072 234.225 276.45 233.766C276.828 233.307 277.017 232.781 277.017 232.187C277.017 231.432 276.72 230.838 276.126 230.406C275.533 229.948 274.75 229.583 273.779 229.313C272.807 229.017 271.728 228.747 270.54 228.504C269.38 228.234 268.206 227.91 267.018 227.532C265.858 227.154 264.792 226.669 263.821 226.075C262.849 225.481 262.053 224.699 261.432 223.727C260.839 222.756 260.542 221.514 260.542 220.003C260.542 218.384 260.973 216.913 261.837 215.591C262.728 214.241 264.05 213.175 265.804 212.393C267.585 211.583 269.812 211.178 272.483 211.178C274.264 211.178 276.018 211.394 277.746 211.826C279.473 212.231 280.997 212.852 282.32 213.688L280.296 218.667C278.973 217.912 277.651 217.358 276.329 217.008C275.006 216.63 273.711 216.441 272.443 216.441C271.174 216.441 270.135 216.589 269.326 216.886C268.516 217.183 267.936 217.574 267.585 218.06C267.234 218.519 267.059 219.059 267.059 219.679C267.059 220.408 267.356 221.002 267.949 221.46C268.543 221.892 269.326 222.243 270.297 222.513C271.269 222.783 272.335 223.053 273.495 223.322C274.683 223.592 275.857 223.903 277.017 224.253C278.204 224.604 279.284 225.077 280.255 225.67C281.227 226.264 282.009 227.047 282.603 228.018C283.224 228.99 283.534 230.217 283.534 231.702C283.534 233.294 283.089 234.751 282.198 236.074C281.308 237.396 279.972 238.462 278.191 239.271C276.437 240.081 274.21 240.486 271.512 240.486ZM303.802 240.486C301.562 240.486 299.484 240.121 297.568 239.393C295.679 238.664 294.033 237.639 292.63 236.316C291.253 234.994 290.174 233.442 289.391 231.661C288.636 229.88 288.258 227.937 288.258 225.832C288.258 223.727 288.636 221.784 289.391 220.003C290.174 218.222 291.267 216.67 292.67 215.348C294.074 214.026 295.72 213 297.609 212.271C299.498 211.543 301.549 211.178 303.762 211.178C306.002 211.178 308.053 211.543 309.915 212.271C311.804 213 313.436 214.026 314.813 215.348C316.216 216.67 317.309 218.222 318.092 220.003C318.874 221.757 319.265 223.7 319.265 225.832C319.265 227.937 318.874 229.894 318.092 231.702C317.309 233.483 316.216 235.035 314.813 236.357C313.436 237.652 311.804 238.664 309.915 239.393C308.053 240.121 306.015 240.486 303.802 240.486ZM303.762 234.9C305.03 234.9 306.19 234.684 307.243 234.252C308.322 233.82 309.267 233.199 310.077 232.39C310.886 231.58 311.507 230.622 311.939 229.516C312.397 228.409 312.627 227.181 312.627 225.832C312.627 224.483 312.397 223.255 311.939 222.148C311.507 221.042 310.886 220.084 310.077 219.274C309.294 218.465 308.363 217.844 307.283 217.412C306.204 216.981 305.03 216.765 303.762 216.765C302.493 216.765 301.319 216.981 300.24 217.412C299.188 217.844 298.256 218.465 297.447 219.274C296.637 220.084 296.003 221.042 295.544 222.148C295.113 223.255 294.897 224.483 294.897 225.832C294.897 227.154 295.113 228.382 295.544 229.516C296.003 230.622 296.624 231.58 297.406 232.39C298.216 233.199 299.161 233.82 300.24 234.252C301.319 234.684 302.493 234.9 303.762 234.9ZM326.218 240V211.664H332.776V234.657H346.984V240H326.218ZM364.945 240.486C360.924 240.486 357.78 239.366 355.513 237.126C353.246 234.886 352.113 231.688 352.113 227.532V211.664H358.671V227.289C358.671 229.988 359.224 231.931 360.33 233.118C361.437 234.306 362.988 234.9 364.985 234.9C366.982 234.9 368.534 234.306 369.641 233.118C370.747 231.931 371.3 229.988 371.3 227.289V211.664H377.777V227.532C377.777 231.688 376.644 234.886 374.377 237.126C372.11 239.366 368.966 240.486 364.945 240.486ZM391.676 240V217.008H382.609V211.664H407.302V217.008H398.234V240H391.676ZM412.854 240V211.664H419.412V240H412.854ZM441.924 240.486C439.684 240.486 437.606 240.121 435.69 239.393C433.801 238.664 432.154 237.639 430.751 236.316C429.375 234.994 428.295 233.442 427.513 231.661C426.757 229.88 426.379 227.937 426.379 225.832C426.379 223.727 426.757 221.784 427.513 220.003C428.295 218.222 429.388 216.67 430.792 215.348C432.195 214.026 433.841 213 435.73 212.271C437.619 211.543 439.67 211.178 441.883 211.178C444.123 211.178 446.174 211.543 448.036 212.271C449.925 213 451.558 214.026 452.934 215.348C454.337 216.67 455.43 218.222 456.213 220.003C456.995 221.757 457.387 223.7 457.387 225.832C457.387 227.937 456.995 229.894 456.213 231.702C455.43 233.483 454.337 235.035 452.934 236.357C451.558 237.652 449.925 238.664 448.036 239.393C446.174 240.121 444.136 240.486 441.924 240.486ZM441.883 234.9C443.151 234.9 444.312 234.684 445.364 234.252C446.444 233.82 447.388 233.199 448.198 232.39C449.007 231.58 449.628 230.622 450.06 229.516C450.519 228.409 450.748 227.181 450.748 225.832C450.748 224.483 450.519 223.255 450.06 222.148C449.628 221.042 449.007 220.084 448.198 219.274C447.415 218.465 446.484 217.844 445.405 217.412C444.325 216.981 443.151 216.765 441.883 216.765C440.615 216.765 439.441 216.981 438.361 217.412C437.309 217.844 436.378 218.465 435.568 219.274C434.759 220.084 434.124 221.042 433.666 222.148C433.234 223.255 433.018 224.483 433.018 225.832C433.018 227.154 433.234 228.382 433.666 229.516C434.124 230.622 434.745 231.58 435.528 232.39C436.337 233.199 437.282 233.82 438.361 234.252C439.441 234.684 440.615 234.9 441.883 234.9ZM464.339 240V211.664H469.763L486.482 232.066H483.85V211.664H490.327V240H484.943L468.185 219.598H470.816V240H464.339ZM508.366 240.486C506.099 240.486 503.926 240.189 501.848 239.595C499.77 238.975 498.097 238.178 496.829 237.207L499.055 232.268C500.27 233.132 501.7 233.847 503.346 234.414C505.019 234.954 506.706 235.223 508.406 235.223C509.701 235.223 510.74 235.102 511.523 234.859C512.333 234.589 512.926 234.225 513.304 233.766C513.682 233.307 513.871 232.781 513.871 232.187C513.871 231.432 513.574 230.838 512.98 230.406C512.387 229.948 511.604 229.583 510.633 229.313C509.661 229.017 508.582 228.747 507.394 228.504C506.234 228.234 505.06 227.91 503.872 227.532C502.712 227.154 501.646 226.669 500.675 226.075C499.703 225.481 498.907 224.699 498.286 223.727C497.692 222.756 497.396 221.514 497.396 220.003C497.396 218.384 497.827 216.913 498.691 215.591C499.582 214.241 500.904 213.175 502.658 212.393C504.439 211.583 506.666 211.178 509.337 211.178C511.118 211.178 512.872 211.394 514.6 211.826C516.327 212.231 517.851 212.852 519.174 213.688L517.15 218.667C515.827 217.912 514.505 217.358 513.183 217.008C511.86 216.63 510.565 216.441 509.297 216.441C508.028 216.441 506.989 216.589 506.18 216.886C505.37 217.183 504.79 217.574 504.439 218.06C504.088 218.519 503.913 219.059 503.913 219.679C503.913 220.408 504.21 221.002 504.803 221.46C505.397 221.892 506.18 222.243 507.151 222.513C508.123 222.783 509.189 223.053 510.349 223.322C511.537 223.592 512.71 223.903 513.871 224.253C515.058 224.604 516.138 225.077 517.109 225.67C518.081 226.264 518.863 227.047 519.457 228.018C520.078 228.99 520.388 230.217 520.388 231.702C520.388 233.294 519.943 234.751 519.052 236.074C518.162 237.396 516.826 238.462 515.045 239.271C513.291 240.081 511.064 240.486 508.366 240.486Z" fill="currentColor"/>
</g>
<path d="M271.457 5.68573C271.457 2.54545 274.003 -0.000244141 277.143 -0.000244141C308.546 -0.000244141 334.003 25.4568 334.003 56.8596C334.003 59.9998 331.457 62.5455 328.317 62.5455H277.414C274.124 62.5455 271.457 59.8786 271.457 56.5888V5.68573Z" fill="currentColor"/>
<path d="M265.5 181.951C265.5 185.092 262.955 187.637 259.815 187.637C228.412 187.637 202.955 162.18 202.955 130.777C202.955 127.637 205.5 125.091 208.641 125.091H259.544C262.834 125.091 265.5 127.758 265.5 131.048V181.951Z" fill="currentColor"/>
<path d="M202.955 47.6538C202.955 21.3352 224.29 -0.00012207 250.609 -0.00012207H259.544C262.833 -0.00012207 265.5 2.6668 265.5 5.95662V101.264C265.5 104.554 262.833 107.221 259.544 107.221H250.609C224.29 107.221 202.955 85.8858 202.955 59.5673V47.6538Z" fill="currentColor"/>
<path d="M334.003 139.983C334.003 166.302 312.668 187.637 286.349 187.637H277.414C274.124 187.637 271.457 184.97 271.457 181.68V86.3726C271.457 83.0828 274.124 80.4159 277.414 80.4159H286.349C312.668 80.4159 334.003 101.751 334.003 128.07V139.983Z" fill="currentColor"/>
<rect width="59.5674" height="187.637" rx="29.7837" transform="matrix(1 0 0 -1 462.499 187.637)" fill="currentColor"/>
<rect width="59.5674" height="187.637" rx="29.7837" transform="matrix(1 0 0 -1 349.32 187.637)" fill="currentColor"/>
<rect width="41.6972" height="83.3944" rx="20.8486" transform="matrix(1 0 0 -1 414.844 104.243)" fill="currentColor"/>
<rect width="76.5867" height="241.248" rx="38.2933" fill="currentColor"/>
<path d="M84.2451 51.6959C84.2451 23.1449 107.39 -0.00012207 135.941 -0.00012207C164.492 -0.00012207 187.637 23.145 187.637 51.6959C187.637 80.2468 164.492 103.392 135.941 103.392H93.5673C88.4188 103.392 84.2451 99.2182 84.2451 94.0696V51.6959Z" fill="currentColor"/>
<path d="M84.2451 119.051C84.2451 114.632 87.8268 111.051 92.2451 111.051H139.637C166.147 111.051 187.637 132.541 187.637 159.051V233.518C187.637 237.787 184.176 241.248 179.907 241.248C127.074 241.248 84.2451 198.419 84.2451 145.586V119.051Z" fill="currentColor"/>
</g>
<defs>
<clipPath id="clip0_81_229">
<rect width="522.42" height="250" fill="white"/>
</clipPath>
<clipPath id="clip1_81_229">
<rect width="315" height="30" fill="white" transform="translate(206 211)"/>
</clipPath>
</defs>
</svg>
