<svg viewBox="0 0 1150 680" fill="none" xmlns="http://www.w3.org/2000/svg">
<path d="M623.667 114.904C622.663 114.519 621.852 114.132 621.157 113.861C619.691 113.205 618.416 112.665 616.871 112.395C563.28 102.549 526.718 70.5799 505.134 14.7492C501.04 4.13189 495.056 -0.000122252 483.82 -0.000122252H483.704C368.647 0.309211 254.012 0.309211 143.008 -0.000122252H142.854C131.387 -0.000122252 125.248 4.36253 120.962 15.5212C101.348 66.6799 68.1042 97.7612 19.3388 110.541C16.0575 111.391 12.6975 112.085 9.45617 112.781C7.98817 113.089 6.52149 113.399 5.09215 113.708L1.26948 114.557L0.613476 118.417C0.497476 119.075 0.420139 119.576 0.342806 119.961C0.110806 120.965 -0.0811775 122.008 0.0348225 123.321C11.3082 238.148 41.8495 345.021 90.8068 441.044C143.24 543.864 211.658 620.428 299.92 675.139C304.708 678.112 309.032 679.617 313.318 679.617C317.488 679.617 321.619 678.189 326.175 675.371C375.596 644.521 418.492 607.377 453.667 564.907C459.15 558.304 464.515 551.587 469.69 544.829H455.018C451.659 549.115 448.223 553.323 444.748 557.532C410.384 599.039 368.415 635.371 320.036 665.525C314.631 668.884 311.735 668.845 306.059 665.293C219.611 611.74 152.583 536.644 101.116 435.756C53.0842 341.624 23.0468 236.759 11.7722 124.132H11.8495C15.2481 123.399 18.7215 122.665 22.2735 121.739C74.1668 108.148 111 73.7839 131.773 19.6532C134.397 12.8185 136.367 11.5066 142.969 11.5826C254.012 11.8919 368.647 11.8919 483.743 11.5826C490.384 11.4292 491.93 12.7412 494.323 18.9199C505.751 48.4559 521.581 72.0465 541.697 89.5759C561.813 107.105 586.215 118.533 614.787 123.785C614.864 123.785 615.056 123.861 615.288 123.939C611.08 158.881 605.675 192.203 598.995 224.016H610.81C617.606 191.275 623.088 156.951 627.296 120.965L627.799 116.525L623.667 114.904Z" fill="#3592CF"/>
<path d="M181.83 344.549C161.23 297.114 146.085 248.542 135.534 196.054L134.789 192.346L137.885 190.174C162.373 172.986 183.753 151.45 201.437 126.163L203.169 123.686L206.193 123.691C231.616 123.739 257.077 123.771 282.545 123.785L282.537 135.367C258.069 135.354 233.608 135.325 209.176 135.281C191.822 159.546 171.142 180.435 147.637 197.445C157.989 247.718 172.664 294.367 192.456 339.934L181.83 344.549Z" fill="#3592CF"/>
<path d="M349.264 479.115V496.875C339.186 508.149 328.414 518.844 317.101 528.844L313.241 532.204L309.418 528.844C269.997 494.017 237.024 451.74 208.606 399.539L218.762 394.017C245.596 443.284 276.561 483.477 313.241 516.721C326.097 505.021 338.221 492.435 349.264 479.115Z" fill="#3592CF"/>
<path d="M491.272 191.854L490.5 195.561C488.531 205.214 486.445 214.673 484.207 224.017H472.315C474.477 215.136 476.523 206.102 478.415 196.912C455.288 180.001 434.863 159.268 417.604 135.29C392.816 135.329 368.028 135.368 343.241 135.368V123.785C369.032 123.785 394.785 123.745 420.577 123.708L423.588 123.669L425.327 126.14C442.932 151.198 464.091 172.549 488.184 189.654L491.272 191.854Z" fill="#3592CF"/>
<path d="M872.305 190.127H612.368V178.543H872.305V190.127Z" fill="#3592CF"/>
<path d="M902.662 159.772C889.116 159.772 878.096 170.792 878.096 184.335C878.096 197.882 889.116 208.9 902.662 208.9C916.206 208.9 927.224 197.882 927.224 184.335C927.224 170.792 916.206 159.772 902.662 159.772ZM902.662 220.484C882.728 220.484 866.514 204.268 866.514 184.335C866.514 164.404 882.728 148.19 902.662 148.19C922.592 148.19 938.807 164.404 938.807 184.335C938.807 204.268 922.592 220.484 902.662 220.484Z" fill="#3592CF"/>
<path d="M312.896 104.921C299.352 104.921 288.333 115.941 288.333 129.483C288.333 143.03 299.352 154.049 312.896 154.049C326.441 154.049 337.461 143.03 337.461 129.483C337.461 115.941 326.441 104.921 312.896 104.921ZM312.896 165.631C292.965 165.631 276.749 149.417 276.749 129.483C276.749 109.553 292.965 93.3367 312.896 93.3367C332.829 93.3367 349.044 109.553 349.044 129.483C349.044 149.417 332.829 165.631 312.896 165.631Z" fill="#3592CF"/>
<path d="M199.097 345.584C185.552 345.584 174.532 356.604 174.532 370.147C174.532 383.693 185.552 394.712 199.097 394.712C212.641 394.712 223.66 383.693 223.66 370.147C223.66 356.604 212.641 345.584 199.097 345.584ZM199.097 406.296C179.164 406.296 162.949 390.08 162.949 370.147C162.949 350.216 179.164 334.001 199.097 334.001C219.028 334.001 235.244 350.216 235.244 370.147C235.244 390.08 219.028 406.296 199.097 406.296Z" fill="#3592CF"/>
<path d="M1083.2 590.286H428.672V578.704H1083.2V590.286Z" fill="#3592CF"/>
<path d="M1113.55 559.929C1100.01 559.929 1088.99 570.949 1088.99 584.495C1088.99 598.04 1100.01 609.06 1113.55 609.06C1127.1 609.06 1138.12 598.04 1138.12 584.495C1138.12 570.949 1127.1 559.929 1113.55 559.929ZM1113.55 620.643C1093.62 620.643 1077.4 604.428 1077.4 584.495C1077.4 564.561 1093.62 548.347 1113.55 548.347C1133.49 548.347 1149.7 564.561 1149.7 584.495C1149.7 604.428 1133.49 620.643 1113.55 620.643Z" fill="#3592CF"/>
<path d="M494.9 321.423L580.542 261.658H536.339L415.184 346.207V261.651H389.886V417.326V428.826V507.178H415.184V428.826V417.326C415.184 378.167 447.042 346.31 486.202 346.31C525.36 346.31 557.218 378.167 557.218 417.326V507.178H582.515V417.326C582.515 367.152 543.946 325.838 494.9 321.423Z" fill="currentColor"/>
<path d="M727.375 405.446H690.409V405.431H653.453C639.351 405.431 627.877 393.958 627.877 379.855C627.877 365.753 639.351 354.279 653.453 354.279H777.961V328.982H653.453C625.403 328.982 602.58 351.805 602.58 379.855C602.58 407.907 625.403 430.729 653.453 430.729H687.356V430.735H727.375C741.467 430.735 752.935 442.203 752.935 456.295C752.935 470.389 741.467 481.894 727.375 481.894H723.745V503.439L691.041 481.894H602.856V507.185H727.375C755.405 507.185 778.224 484.365 778.224 456.295C778.224 428.265 755.405 405.446 727.375 405.446Z" fill="currentColor"/>
<path d="M1041.25 335.287C1008.67 335.287 980.116 352.809 964.485 378.919C948.854 352.809 920.298 335.287 887.718 335.287C862.588 335.287 839.861 345.723 823.601 362.471V326.524H798.304V424.703V479.897V507.179H823.601V479.897V424.703C823.601 389.347 852.364 360.584 887.72 360.584C923.073 360.584 951.836 389.347 951.836 424.703V479.897V507.179H977.134V479.897V424.703C977.134 389.347 1005.9 360.584 1041.25 360.584C1076.61 360.584 1105.37 389.347 1105.37 424.703V507.179H1130.67V424.703C1130.67 375.397 1090.56 335.287 1041.25 335.287Z" fill="currentColor"/>
<path d="M661.831 456.305C661.831 459.889 658.924 462.795 655.34 462.795C651.755 462.795 648.85 459.889 648.85 456.305C648.85 452.721 651.755 449.814 655.34 449.814C658.924 449.814 661.831 452.721 661.831 456.305Z" fill="#3592CF"/>
<path d="M692.259 456.305C692.259 459.889 689.354 462.795 685.769 462.795C682.185 462.795 679.279 459.889 679.279 456.305C679.279 452.721 682.185 449.814 685.769 449.814C689.354 449.814 692.259 452.721 692.259 456.305Z" fill="#3592CF"/>
<path d="M722.688 456.305C722.688 459.889 719.782 462.795 716.198 462.795C712.614 462.795 709.707 459.889 709.707 456.305C709.707 452.721 712.614 449.814 716.198 449.814C719.782 449.814 722.688 452.721 722.688 456.305Z" fill="#3592CF"/>
<path d="M459.425 619.017H464.393V648.486H459.425V619.017Z" fill="currentColor"/>
<path d="M509.012 623.479V648.486H504.044V623.479H494.74V619.017H518.358V623.479H509.012Z" fill="currentColor"/>
<path d="M547.399 634.003H557.755V637.33H547.399V634.003Z" fill="currentColor"/>
<path d="M610.289 621.838L608.227 626.217C605.027 624.279 601.827 623.479 599.595 623.479C596.691 623.479 594.796 624.574 594.796 626.553C594.796 632.994 610.709 629.542 610.668 640.151C610.668 645.414 606.037 648.655 599.553 648.655C594.923 648.655 590.544 646.761 587.513 643.982L589.66 639.687C592.692 642.466 596.481 643.982 599.637 643.982C603.091 643.982 605.152 642.677 605.152 640.403C605.152 633.837 589.239 637.498 589.239 627.015C589.239 621.963 593.576 618.807 599.975 618.807C603.805 618.807 607.552 620.027 610.289 621.838Z" fill="currentColor"/>
<path d="M645.181 633.752C645.181 639.604 650.022 644.235 655.79 644.235C661.558 644.235 666.273 639.604 666.273 633.752C666.273 627.9 661.558 623.354 655.79 623.354C649.98 623.354 645.181 627.9 645.181 633.752ZM671.366 633.752C671.366 642.171 664.546 648.696 655.748 648.696C646.949 648.696 640.129 642.171 640.129 633.752C640.129 625.29 646.949 618.891 655.748 618.891C664.546 618.891 671.366 625.332 671.366 633.752Z" fill="currentColor"/>
<path d="M720.488 643.982V648.486H702.764V619.017H707.732V643.982H720.488Z" fill="currentColor"/>
<path d="M776.388 636.278C776.388 643.982 771.547 648.696 763.59 648.696C755.634 648.696 750.75 643.982 750.75 636.278V619.018H755.718V636.278C755.718 641.246 758.791 644.235 763.632 644.235C768.431 644.235 771.42 641.287 771.42 636.278V619.018H776.388V636.278Z" fill="currentColor"/>
<path d="M820.373 623.479V648.486H815.405V623.479H806.101V619.017H829.719V623.479H820.373Z" fill="currentColor"/>
<path d="M860.063 619.017H865.031V648.486H860.063V619.017Z" fill="currentColor"/>
<path d="M901.484 633.752C901.484 639.604 906.325 644.235 912.093 644.235C917.861 644.235 922.576 639.604 922.576 633.752C922.576 627.9 917.861 623.354 912.093 623.354C906.284 623.354 901.484 627.9 901.484 633.752ZM927.669 633.752C927.669 642.171 920.849 648.696 912.05 648.696C903.252 648.696 896.432 642.171 896.432 633.752C896.432 625.29 903.252 618.891 912.05 618.891C920.849 618.891 927.669 625.332 927.669 633.752Z" fill="currentColor"/>
<path d="M979.737 648.486L964.034 627.352V648.486H959.066V619.017H963.95L979.737 640.193V619.017H984.621V648.486H979.737Z" fill="currentColor"/>
<path d="M1038.5 621.838L1036.44 626.217C1033.24 624.279 1030.04 623.479 1027.8 623.479C1024.9 623.479 1023.01 624.574 1023.01 626.553C1023.01 632.994 1038.92 629.542 1038.88 640.151C1038.88 645.414 1034.25 648.655 1027.76 648.655C1023.13 648.655 1018.75 646.761 1015.72 643.982L1017.87 639.687C1020.9 642.466 1024.69 643.982 1027.85 643.982C1031.3 643.982 1033.36 642.677 1033.36 640.403C1033.36 633.837 1017.45 637.498 1017.45 627.015C1017.45 621.963 1021.79 618.807 1028.18 618.807C1032.01 618.807 1035.76 620.027 1038.5 621.838Z" fill="currentColor"/>
</svg>
